<svg width="303" height="224" viewBox="0 0 303 224" fill="none" xmlns="https://www.w3.org/2000/svg">
<path d="M68.7524 223.568C49.6135 223.568 34.7031 217.784 24.021 206.216C13.7839 194.203 8.66541 177.073 8.66541 154.826C8.66541 133.914 12.8937 110.778 21.3504 85.4165C29.8071 60.0553 41.1569 34.4716 55.3997 8.66547H132.177V12.6699C121.495 30.9122 112.148 48.0421 104.137 64.0597C96.5704 80.0773 90.3391 94.7601 85.4432 108.108C99.686 110.778 110.368 117.229 117.49 127.463C125.056 137.696 128.839 150.377 128.839 165.505C128.839 182.857 123.721 196.872 113.484 207.551C103.247 218.229 88.3362 223.568 68.7524 223.568ZM238.999 223.568C219.86 223.568 204.949 217.784 194.267 206.216C184.03 194.203 178.912 177.073 178.912 154.826C178.912 133.914 183.14 110.778 191.597 85.4165C200.053 60.0553 211.403 34.4716 225.646 8.66547H302.424V12.6699C291.742 30.9122 282.395 48.0421 274.383 64.0597C266.817 80.0773 260.585 94.7601 255.69 108.108C269.932 110.778 280.614 117.229 287.736 127.463C295.302 137.696 299.086 150.377 299.086 165.505C299.086 182.857 293.967 196.872 283.73 207.551C273.493 218.229 258.583 223.568 238.999 223.568Z" fill="#C27A42"/>
<path d="M60.0869 214.903C40.9481 214.903 26.0377 209.119 15.3556 197.551C5.11852 185.537 0 168.407 0 146.161C0 125.249 4.22834 102.112 12.685 76.7511C21.1417 51.3898 32.4915 25.8062 46.7343 0H123.512V4.0044C112.83 22.2467 103.483 39.3766 95.4715 55.3942C87.905 71.4118 81.6737 86.0947 76.7778 99.4426C91.0206 102.112 101.703 108.564 108.824 118.797C116.391 129.031 120.174 141.711 120.174 156.839C120.174 174.191 115.055 188.207 104.818 198.885C94.5813 209.564 79.6708 214.903 60.0869 214.903ZM230.333 214.903C211.194 214.903 196.284 209.119 185.602 197.551C175.365 185.537 170.246 168.407 170.246 146.161C170.246 125.249 174.475 102.112 182.931 76.7511C191.388 51.3898 202.738 25.8062 216.981 0H293.758V4.0044C283.076 22.2467 273.729 39.3766 265.718 55.3942C258.151 71.4118 251.92 86.0947 247.024 99.4426C261.267 102.112 271.949 108.564 279.07 118.797C286.637 129.031 290.42 141.711 290.42 156.839C290.42 174.191 285.302 188.207 275.065 198.885C264.828 209.564 249.917 214.903 230.333 214.903Z" fill="#F49953"/>
</svg>
